<svg width="18" height="18" viewBox="0 0 18 18" fill="none" xmlns="http://www.w3.org/2000/svg">
<path fill-rule="evenodd" clip-rule="evenodd" d="M0 9C0 4.1211 4.1211 0 9 0C13.8789 0 18 4.1211 18 9C18 11.871 16.5672 14.4702 14.4 16.1316V16.2H14.3082C12.807 17.3205 10.9683 18 9 18C7.0317 18 5.193 17.3205 3.6918 16.2H3.6V16.1316C1.4328 14.4702 0 11.8701 0 9ZM6.41112 13.7124C5.93239 14.0975 5.59923 14.6344 5.4666 15.2343C6.5178 15.8436 7.7256 16.2 9 16.2C10.2744 16.2 11.4822 15.8436 12.5334 15.2343C12.4006 14.6344 12.0674 14.0977 11.5887 13.7126C11.11 13.3275 10.5144 13.1169 9.9 13.1157H8.1C7.48557 13.1168 6.88986 13.3272 6.41112 13.7124ZM12.391 12.0705C13.129 12.5617 13.7057 13.2596 14.049 14.0769C15.3693 12.7638 16.2 10.9584 16.2 9C16.2 5.0967 12.9033 1.8 9 1.8C5.0967 1.8 1.8 5.0967 1.8 9C1.8 10.9584 2.6307 12.7638 3.951 14.0769C4.2943 13.2596 4.87104 12.5617 5.60904 12.0705C6.34704 11.5794 7.21351 11.3168 8.1 11.3157H9.9C10.7865 11.3168 11.653 11.5794 12.391 12.0705ZM5.3999 7.19988C5.3999 5.14788 6.9479 3.59988 8.9999 3.59988C11.0519 3.59988 12.5999 5.14788 12.5999 7.19988C12.5999 9.25188 11.0519 10.7999 8.9999 10.7999C6.9479 10.7999 5.3999 9.25188 5.3999 7.19988ZM7.1999 7.19988C7.1999 8.26008 7.9397 8.99988 8.9999 8.99988C10.0601 8.99988 10.7999 8.26008 10.7999 7.19988C10.7999 6.13968 10.0601 5.39988 8.9999 5.39988C7.9397 5.39988 7.1999 6.13968 7.1999 7.19988Z" fill="#9B9B9B"/>
</svg>
